<?xml version="1.0" encoding="UTF-8"?>
<!DOCTYPE svg PUBLIC "-//W3C//DTD SVG 1.1//EN" "http://www.w3.org/Graphics/SVG/1.1/DTD/svg11.dtd">
<!-- Creator: CorelDRAW X6 -->
<svg xmlns="http://www.w3.org/2000/svg" xml:space="preserve" width="200mm" height="97.142mm" version="1.1" style="shape-rendering:geometricPrecision; text-rendering:geometricPrecision; image-rendering:optimizeQuality; fill-rule:evenodd; clip-rule:evenodd"
viewBox="0 0 20000 9714"
 xmlns:xlink="http://www.w3.org/1999/xlink">
 <defs>
  <style type="text/css">
   <![CDATA[
    .str0 {stroke:#2B2A29;stroke-width:7.62}
    .fil0 {fill:#2B2A29}
    .fil1 {fill:#434242}
    .fil3 {fill:#E31E24}
    .fil2 {fill:#FEFEFE}
    .fil4 {fill:#2B2A29;fill-rule:nonzero}
   ]]>
  </style>
 </defs>
 <g id="Ebene_x0020_1">
  <metadata id="CorelCorpID_0Corel-Layer"/>
  <g id="_917512368">
   <polygon class="fil0 str0" points="25,3403 2971,3403 2971,4566 2671,4921 2971,5285 2971,6418 20,6418 "/>
   <polygon class="fil0 str0" points="3139,3398 4424,3398 4424,5635 4780,5635 4780,3398 6045,3398 6045,6418 3143,6418 "/>
   <polygon class="fil0 str0" points="6218,3398 9060,3398 9060,4187 7494,4187 7494,4522 9065,4522 9065,6418 6213,6418 6213,5645 7774,5645 7774,5305 6213,5305 "/>
   <polygon class="fil0 str0" points="9238,3398 12105,3398 12105,4177 10489,4177 10489,4522 12105,4522 12105,5310 10489,5310 10489,5645 12110,5645 12110,6418 9233,6418 "/>
   <polygon class="fil1 str0" points="4779,3226 4779,2073 7656,9 10489,2049 10489,3231 9237,3231 9237,2743 7661,1620 6050,2748 6050,3226 "/>
   <polygon class="fil2 str0" points="4976,3024 4976,2196 7666,275 10292,2172 10292,3024 9459,3024 9459,2645 7671,1354 5843,2640 5843,3019 "/>
   <polygon class="fil3" points="7955,0 10322,0 19482,6419 17027,6419 "/>
   <rect class="fil2 str0" x="1138" y="3970" width="769" height="764"/>
   <rect class="fil2 str0" x="1138" y="5098" width="769" height="764"/>
   <path class="fil4" d="M15 3005l135 -14c8,48 24,83 49,105 25,22 58,34 100,34 44,0 78,-10 100,-30 22,-20 34,-43 34,-70 0,-17 -5,-32 -14,-44 -9,-12 -26,-22 -50,-31 -16,-6 -53,-17 -110,-32 -74,-20 -126,-44 -155,-72 -42,-40 -63,-89 -63,-146 0,-37 10,-72 29,-104 20,-32 48,-57 85,-74 37,-17 82,-25 134,-25 86,0 150,20 193,60 43,40 66,94 68,161l-139 5c-6,-37 -18,-64 -38,-81 -19,-16 -48,-25 -87,-25 -40,0 -71,9 -94,26 -14,11 -22,26 -22,45 0,17 7,32 21,44 17,16 60,32 127,49 67,17 117,34 149,52 32,18 57,43 76,74 18,31 27,70 27,115 0,41 -11,80 -33,117 -22,36 -53,63 -92,81 -40,18 -90,26 -149,26 -87,0 -153,-21 -199,-63 -46,-42 -74,-104 -83,-185z"/>
   <polygon id="1" class="fil4" points="722,3240 722,2516 1229,2516 1229,2638 861,2638 861,2799 1203,2799 1203,2921 861,2921 861,3118 1242,3118 1242,3240 "/>
   <polygon id="2" class="fil4" points="1389,3240 1389,2516 1527,2516 1527,3240 "/>
   <polygon id="3" class="fil4" points="1847,3240 1847,2638 1644,2638 1644,2516 2187,2516 2187,2638 1985,2638 1985,3240 "/>
   <path id="4" class="fil4" d="M2865 3240l-131 0 0 -524c-48,48 -104,83 -169,106l0 -126c34,-12 71,-34 111,-67 40,-33 68,-72 83,-116l106 0 0 729z"/>
   <path id="5" class="fil4" d="M3066 3072l127 -15c3,27 11,48 24,61 13,13 30,20 51,20 27,0 50,-13 69,-40 19,-26 31,-81 36,-165 -33,40 -74,61 -124,61 -54,0 -100,-22 -139,-66 -39,-44 -58,-101 -58,-172 0,-74 21,-133 62,-178 41,-45 94,-67 158,-67 69,0 126,29 171,85 44,57 67,151 67,281 0,133 -23,228 -69,287 -46,59 -106,88 -181,88 -53,0 -96,-15 -129,-46 -33,-30 -54,-76 -63,-136zm295 -304c0,-45 -10,-79 -29,-104 -19,-25 -42,-37 -67,-37 -24,0 -44,10 -60,30 -16,20 -24,53 -24,99 0,47 9,81 26,103 17,22 39,33 65,33 25,0 46,-10 64,-32 17,-21 26,-52 26,-93z"/>
   <path id="6" class="fil4" d="M3929 3240l-131 0 0 -524c-48,48 -104,83 -169,106l0 -126c34,-12 71,-34 111,-67 40,-33 68,-72 83,-116l106 0 0 729z"/>
   <path id="7" class="fil4" d="M4130 3072l127 -15c3,27 11,48 24,61 13,13 30,20 51,20 27,0 50,-13 69,-40 19,-26 31,-81 36,-165 -33,40 -74,61 -124,61 -54,0 -100,-22 -139,-66 -39,-44 -58,-101 -58,-172 0,-74 21,-133 62,-178 41,-45 94,-67 158,-67 69,0 126,29 171,85 44,57 67,151 67,281 0,133 -23,228 -69,287 -46,59 -106,88 -181,88 -53,0 -96,-15 -129,-46 -33,-30 -54,-76 -63,-136zm295 -304c0,-45 -10,-79 -29,-104 -19,-25 -42,-37 -67,-37 -24,0 -44,10 -60,30 -16,20 -24,53 -24,99 0,47 9,81 26,103 17,22 39,33 65,33 25,0 46,-10 64,-32 17,-21 26,-52 26,-93z"/>
   <path class="fil4" d="M7 6842l449 0c89,0 155,4 199,11 44,7 83,23 117,45 35,23 63,53 86,92 23,38 35,81 35,128 0,51 -14,98 -42,141 -28,43 -67,75 -115,96 68,20 121,53 157,100 37,47 55,102 55,166 0,50 -12,99 -36,146 -24,47 -56,85 -98,114 -41,28 -92,46 -152,52 -38,4 -129,6 -273,7l-382 0 0 -1098zm227 183l0 253 149 0c88,0 143,-1 164,-4 39,-4 69,-17 92,-39 22,-22 33,-50 33,-85 0,-34 -10,-61 -29,-83 -19,-21 -48,-34 -85,-38 -22,-3 -87,-4 -193,-4l-130 0zm0 436l0 295 210 0c82,0 134,-2 156,-7 34,-6 61,-21 82,-44 21,-24 32,-54 32,-94 0,-33 -8,-61 -25,-84 -16,-23 -40,-40 -71,-50 -31,-10 -98,-16 -201,-16l-183 0z"/>
   <polygon id="1" class="fil4" points="1195,7941 1195,6842 2026,6842 2026,7028 1422,7028 1422,7272 1984,7272 1984,7458 1422,7458 1422,7755 2048,7755 2048,7941 "/>
   <path id="2" class="fil4" d="M2296 6842l414 0c93,0 164,7 213,21 66,19 122,53 169,101 47,48 83,108 107,178 24,70 37,157 37,260 0,91 -11,168 -35,234 -28,80 -68,145 -120,194 -39,38 -92,67 -159,88 -50,16 -117,23 -200,23l-426 0 0 -1098zm227 186l0 727 169 0c63,0 109,-4 136,-10 37,-9 67,-24 91,-46 24,-21 44,-57 59,-106 15,-49 23,-116 23,-201 0,-85 -8,-150 -23,-195 -15,-46 -37,-81 -64,-106 -27,-25 -62,-43 -105,-52 -31,-7 -93,-10 -185,-10l-101 0z"/>
   <path id="3" class="fil4" d="M4496 7941l-245 0 -97 -250 -450 0 -93 250 -241 0 436 -1098 240 0 450 1098zm-416 -436l-156 -407 -152 407 308 0z"/>
   <path id="4" class="fil4" d="M5391 7536l220 66c-34,121 -90,211 -168,269 -78,59 -178,88 -298,88 -149,0 -272,-50 -368,-150 -96,-100 -144,-236 -144,-409 0,-183 48,-325 145,-426 96,-101 224,-152 381,-152 138,0 249,40 335,119 51,47 89,115 115,203l-224 52c-13,-57 -41,-102 -83,-135 -42,-33 -94,-49 -154,-49 -83,0 -151,29 -203,88 -52,58 -78,153 -78,284 0,139 26,238 77,296 51,59 118,88 199,88 60,0 112,-19 156,-56 43,-38 75,-96 94,-177z"/>
   <polygon id="5" class="fil4" points="5860,7941 5860,6842 6088,6842 6088,7275 6530,7275 6530,6842 6758,6842 6758,7941 6530,7941 6530,7461 6088,7461 6088,7941 "/>
   <path id="6" class="fil4" d="M7048 6842l227 0 0 595c0,95 3,156 8,184 10,45 32,81 69,108 36,27 86,41 148,41 64,0 112,-13 144,-39 32,-26 52,-57 58,-95 7,-38 10,-100 10,-187l0 -608 227 0 0 578c0,132 -6,225 -18,280 -12,54 -35,100 -68,138 -33,38 -77,67 -132,89 -55,22 -127,33 -215,33 -107,0 -188,-12 -243,-36 -55,-24 -99,-56 -131,-95 -32,-39 -53,-79 -63,-122 -15,-63 -22,-156 -22,-279l0 -587z"/>
   <polygon id="7" class="fil4" points="8236,7941 8236,6842 8457,6842 8919,7579 8919,6842 9129,6842 9129,7941 8902,7941 8447,7219 8447,7941 "/>
   <path id="8" class="fil4" d="M9947 7537l0 -186 488 0 0 438c-47,45 -116,85 -206,119 -90,34 -181,51 -274,51 -117,0 -220,-24 -307,-72 -87,-48 -153,-118 -197,-207 -44,-90 -66,-188 -66,-293 0,-115 25,-216 73,-306 49,-89 121,-158 215,-205 72,-37 162,-55 269,-55 139,0 248,29 327,86 78,58 129,137 151,238l-226 41c-16,-54 -45,-97 -89,-128 -43,-31 -98,-47 -163,-47 -99,0 -178,31 -236,92 -58,62 -88,153 -88,274 0,131 30,229 89,294 59,65 137,98 233,98 47,0 95,-9 142,-27 48,-18 89,-40 123,-66l0 -139 -259 0z"/>
   <polygon id="9" class="fil4" points="10700,7941 10700,6842 11531,6842 11531,7028 10927,7028 10927,7272 11489,7272 11489,7458 10927,7458 10927,7755 11553,7755 11553,7941 "/>
   <polygon id="10" class="fil4" points="11801,7941 11801,6842 12022,6842 12484,7579 12484,6842 12694,6842 12694,7941 12467,7941 12012,7219 12012,7941 "/>
   <path class="fil4" d="M0 8773l336 0c76,0 134,6 173,18 53,16 99,44 137,85 38,41 67,91 87,150 20,59 30,132 30,218 0,76 -9,142 -28,197 -23,67 -55,122 -98,163 -32,32 -75,56 -129,74 -41,13 -95,20 -163,20l-346 0 0 -924zm185 156l0 612 137 0c51,0 88,-3 111,-9 30,-8 55,-20 74,-39 20,-18 36,-48 48,-89 13,-41 19,-98 19,-169 0,-71 -6,-126 -19,-164 -12,-38 -30,-68 -52,-90 -22,-21 -51,-36 -85,-43 -26,-6 -76,-9 -151,-9l-82 0z"/>
   <path id="1" class="fil4" d="M1789 9697l-199 0 -79 -210 -366 0 -76 210 -196 0 355 -924 195 0 366 924zm-338 -367l-127 -342 -123 342 250 0z"/>
   <polygon id="2" class="fil4" points="2043,9697 2043,8929 1772,8929 1772,8773 2497,8773 2497,8929 2228,8929 2228,9697 "/>
   <polygon id="3" class="fil4" points="2867,9697 2867,8929 2596,8929 2596,8773 3321,8773 3321,8929 3052,8929 3052,9697 "/>
   <polygon id="4" class="fil4" points="3485,9697 3485,8773 4161,8773 4161,8929 3670,8929 3670,9134 4127,9134 4127,9291 3670,9291 3670,9541 4179,9541 4179,9697 "/>
   <polygon id="5" class="fil4" points="4386,9697 4386,8781 4571,8781 4571,9541 5029,9541 5029,9697 "/>
   <polygon id="6" class="fil4" points="5205,9697 5205,8773 5384,8773 5760,9392 5760,8773 5931,8773 5931,9697 5746,9697 5376,9090 5376,9697 "/>
   <path id="7" class="fil4" d="M6820 9241c0,52 -18,96 -54,132 -36,36 -79,55 -130,55 -51,0 -95,-18 -131,-55 -36,-37 -54,-81 -54,-132 0,-51 18,-95 54,-131 36,-36 80,-55 131,-55 51,0 94,18 130,54 36,36 54,80 54,132z"/>
   <polygon id="8" class="fil4" points="7532,9697 7532,8929 7261,8929 7261,8773 7986,8773 7986,8929 7717,8929 7717,9697 "/>
   <polygon id="9" class="fil4" points="8151,9697 8151,8773 8827,8773 8827,8929 8335,8929 8335,9134 8792,9134 8792,9291 8335,9291 8335,9541 8844,9541 8844,9697 "/>
   <polygon id="10" class="fil4" points="9051,9697 9051,8781 9236,8781 9236,9541 9694,9541 9694,9697 "/>
   <polygon id="11" class="fil4" points="9845,9697 9845,9521 10020,9521 10020,9697 "/>
   <path id="12" class="fil4" d="M10814 8768c88,0 158,32 207,96 59,76 89,202 89,377 0,175 -30,301 -90,378 -50,63 -118,95 -207,95 -89,0 -161,-35 -215,-104 -54,-69 -82,-193 -82,-371 0,-175 30,-300 90,-377 50,-63 118,-95 207,-95zm0 147c-21,0 -40,7 -56,21 -16,14 -29,38 -38,74 -12,46 -18,123 -18,232 0,109 5,184 16,224 11,41 24,68 40,81 16,14 35,20 55,20 21,0 40,-7 56,-21 16,-14 29,-38 38,-74 12,-45 18,-123 18,-232 0,-109 -5,-183 -16,-224 -11,-41 -24,-68 -40,-82 -16,-14 -35,-21 -55,-21z"/>
   <path id="13" class="fil4" d="M12173 9533l0 164 -614 0c7,-62 27,-121 60,-177 33,-56 99,-130 197,-222 79,-74 127,-125 145,-151 24,-37 36,-73 36,-109 0,-40 -10,-70 -31,-91 -21,-21 -50,-32 -87,-32 -37,0 -65,11 -87,34 -21,22 -34,59 -37,111l-175 -18c10,-98 43,-168 98,-210 55,-42 123,-64 206,-64 90,0 161,25 213,74 51,49 77,111 77,184 0,42 -7,81 -22,119 -15,38 -38,77 -70,118 -21,28 -60,67 -115,118 -55,51 -91,85 -105,102 -15,17 -27,33 -36,49l348 0z"/>
   <path id="14" class="fil4" d="M12285 9452l170 -21c5,44 20,77 43,101 24,23 52,35 85,35 36,0 66,-14 91,-42 24,-28 37,-65 37,-113 0,-45 -12,-80 -35,-106 -24,-26 -52,-39 -86,-39 -22,0 -49,5 -80,13l19 -144c47,1 83,-9 108,-31 25,-22 37,-51 37,-88 0,-31 -9,-56 -27,-75 -18,-19 -43,-28 -73,-28 -30,0 -56,11 -77,32 -21,21 -34,52 -39,92l-161 -28c11,-56 28,-101 51,-135 23,-34 54,-60 95,-79 40,-19 86,-29 136,-29 86,0 155,28 207,84 43,46 64,97 64,155 0,81 -44,147 -132,195 52,11 94,37 125,76 31,40 47,87 47,143 0,81 -29,150 -88,208 -58,57 -131,86 -218,86 -82,0 -151,-24 -205,-73 -54,-48 -86,-111 -95,-189z"/>
   <path id="15" class="fil4" d="M13947 8999l-170 19c-4,-35 -15,-61 -32,-78 -17,-17 -40,-25 -68,-25 -37,0 -68,17 -94,50 -26,34 -41,104 -48,210 44,-52 98,-78 162,-78 73,0 136,28 188,85 52,57 78,129 78,219 0,95 -27,171 -82,228 -55,57 -125,86 -211,86 -92,0 -168,-36 -227,-109 -59,-73 -89,-192 -89,-357 0,-170 31,-292 93,-367 62,-75 142,-113 241,-113 69,0 127,20 172,59 45,39 74,97 87,172zm-397 387c0,58 13,102 39,134 26,31 56,47 90,47 32,0 59,-13 81,-39 21,-26 32,-68 32,-127 0,-60 -12,-104 -35,-133 -23,-28 -52,-42 -87,-42 -34,0 -62,13 -85,40 -23,27 -35,66 -35,119z"/>
   <path id="16" class="fil4" d="M14058 9452l170 -21c5,44 20,77 43,101 24,23 52,35 85,35 36,0 66,-14 91,-42 24,-28 37,-65 37,-113 0,-45 -12,-80 -35,-106 -24,-26 -52,-39 -86,-39 -22,0 -49,5 -80,13l19 -144c47,1 83,-9 108,-31 25,-22 37,-51 37,-88 0,-31 -9,-56 -27,-75 -18,-19 -43,-28 -73,-28 -30,0 -56,11 -77,32 -21,21 -34,52 -39,92l-161 -28c11,-56 28,-101 51,-135 23,-34 54,-60 95,-79 40,-19 86,-29 136,-29 86,0 155,28 207,84 43,46 64,97 64,155 0,81 -44,147 -132,195 52,11 94,37 125,76 31,40 47,87 47,143 0,81 -29,150 -88,208 -58,57 -131,86 -218,86 -82,0 -151,-24 -205,-73 -54,-48 -86,-111 -95,-189z"/>
   <polygon id="17" class="fil4" points="15071,9713 15298,8757 15430,8757 15201,9713 "/>
   <path id="18" class="fil4" d="M15831 9452l170 -21c5,44 20,77 43,101 24,23 52,35 85,35 36,0 66,-14 91,-42 24,-28 37,-65 37,-113 0,-45 -12,-80 -35,-106 -24,-26 -52,-39 -86,-39 -22,0 -49,5 -80,13l19 -144c47,1 83,-9 108,-31 25,-22 37,-51 37,-88 0,-31 -9,-56 -27,-75 -18,-19 -43,-28 -73,-28 -30,0 -56,11 -77,32 -21,21 -34,52 -39,92l-161 -28c11,-56 28,-101 51,-135 23,-34 54,-60 95,-79 40,-19 86,-29 136,-29 86,0 155,28 207,84 43,46 64,97 64,155 0,81 -44,147 -132,195 52,11 94,37 125,76 31,40 47,87 47,143 0,81 -29,150 -88,208 -58,57 -131,86 -218,86 -82,0 -151,-24 -205,-73 -54,-48 -86,-111 -95,-189z"/>
   <path id="19" class="fil4" d="M16903 9460l175 -18c5,40 20,72 44,95 25,23 53,35 85,35 37,0 68,-15 93,-45 25,-30 38,-76 38,-137 0,-57 -13,-100 -38,-129 -25,-29 -58,-43 -98,-43 -50,0 -96,22 -136,67l-142 -21 89 -480 463 0 0 165 -330 0 -28 157c39,-20 79,-29 120,-29 78,0 144,29 198,86 54,57 81,132 81,223 0,76 -22,144 -65,204 -60,82 -142,123 -247,123 -84,0 -153,-23 -206,-69 -53,-46 -85,-108 -95,-185z"/>
   <path id="20" class="fil4" d="M17906 8768c88,0 158,32 207,96 59,76 89,202 89,377 0,175 -30,301 -90,378 -50,63 -118,95 -207,95 -89,0 -161,-35 -215,-104 -54,-69 -82,-193 -82,-371 0,-175 30,-300 90,-377 50,-63 118,-95 207,-95zm0 147c-21,0 -40,7 -56,21 -16,14 -29,38 -38,74 -12,46 -18,123 -18,232 0,109 5,184 16,224 11,41 24,68 40,81 16,14 35,20 55,20 21,0 40,-7 56,-21 16,-14 29,-38 38,-74 12,-45 18,-123 18,-232 0,-109 -5,-183 -16,-224 -11,-41 -24,-68 -40,-82 -16,-14 -35,-21 -55,-21z"/>
   <path id="21" class="fil4" d="M19016 9697l0 -186 -372 0 0 -154 395 -588 147 0 0 587 114 0 0 155 -114 0 0 186 -170 0zm0 -341l0 -316 -209 316 209 0z"/>
   <path id="22" class="fil4" d="M19385 9460l175 -18c5,40 20,72 44,95 25,23 53,35 85,35 37,0 68,-15 93,-45 25,-30 38,-76 38,-137 0,-57 -13,-100 -38,-129 -25,-29 -58,-43 -98,-43 -50,0 -96,22 -136,67l-142 -21 89 -480 463 0 0 165 -330 0 -28 157c39,-20 79,-29 120,-29 78,0 144,29 198,86 54,57 81,132 81,223 0,76 -22,144 -65,204 -60,82 -142,123 -247,123 -84,0 -153,-23 -206,-69 -53,-46 -85,-108 -95,-185z"/>
   <rect class="fil0 str0" x="12670" y="7771" width="6806" height="178"/>
   <path class="fil4" d="M14397 7364l0 -88 227 0 0 208c-22,22 -54,40 -96,57 -42,16 -84,24 -127,24 -55,0 -102,-11 -143,-34 -40,-23 -71,-56 -91,-99 -20,-43 -31,-89 -31,-139 0,-54 11,-103 34,-145 23,-42 56,-75 100,-97 34,-17 75,-26 125,-26 65,0 115,14 152,41 36,27 60,65 70,113l-105 20c-7,-26 -21,-46 -41,-61 -20,-15 -45,-22 -76,-22 -46,0 -83,15 -110,44 -27,29 -41,73 -41,130 0,62 14,109 41,140 28,31 64,47 108,47 22,0 44,-4 66,-13 22,-9 41,-19 57,-32l0 -66 -120 0z"/>
   <path id="1" class="fil4" d="M14714 7178l92 0 0 52c33,-40 72,-60 118,-60 24,0 45,5 63,15 18,10 32,25 44,45 17,-20 35,-35 54,-45 19,-10 40,-15 62,-15 28,0 51,6 70,17 19,11 34,28 43,50 7,16 10,42 10,78l0 242 -100 0 0 -216c0,-38 -3,-62 -10,-73 -9,-14 -24,-21 -43,-21 -14,0 -27,4 -40,13 -12,9 -21,21 -27,38 -5,17 -8,43 -8,78l0 181 -100 0 0 -207c0,-37 -2,-61 -5,-71 -4,-11 -9,-19 -17,-24 -7,-5 -18,-8 -30,-8 -15,0 -29,4 -42,12 -12,8 -21,20 -27,36 -5,16 -8,42 -8,78l0 184 -100 0 0 -378z"/>
   <path id="2" class="fil4" d="M15365 7556l0 -522 100 0 0 188c31,-35 67,-53 110,-53 46,0 84,17 114,50 30,33 45,81 45,144 0,65 -15,114 -46,149 -31,35 -68,52 -112,52 -22,0 -43,-6 -64,-17 -21,-11 -39,-27 -54,-48l0 56 -93 0zm98 -197c0,39 6,68 19,87 17,27 40,40 69,40 22,0 41,-9 57,-28 16,-19 23,-49 23,-90 0,-43 -8,-75 -24,-94 -16,-19 -36,-29 -60,-29 -24,0 -44,9 -60,28 -16,19 -24,47 -24,85z"/>
   <polygon id="3" class="fil4" points="15815,7556 15815,7034 15921,7034 15921,7240 16127,7240 16127,7034 16232,7034 16232,7556 16127,7556 16127,7328 15921,7328 15921,7556 "/>
   <path id="4" class="fil4" d="M17006 7493l-61 77c-30,-14 -58,-34 -86,-60 -21,19 -44,33 -67,42 -24,9 -52,13 -85,13 -65,0 -114,-18 -147,-55 -25,-28 -38,-61 -38,-98 0,-34 10,-64 30,-90 20,-27 50,-50 90,-70 -18,-21 -31,-41 -40,-61 -9,-19 -14,-37 -14,-54 0,-32 13,-58 38,-80 25,-22 61,-33 108,-33 45,0 80,12 106,35 25,23 38,51 38,84 0,21 -6,41 -19,60 -13,19 -38,40 -76,64l72 97c9,-15 16,-35 22,-59l91 20c-9,32 -17,56 -24,70 -7,15 -14,27 -21,37 11,10 26,22 43,34 18,13 31,21 39,25zm-272 -284l27 -21c20,-15 30,-31 30,-46 0,-13 -5,-24 -14,-33 -9,-9 -22,-14 -39,-14 -16,0 -28,4 -37,12 -9,8 -13,17 -13,28 0,12 8,27 23,45l24 29zm-39 109c-23,12 -40,26 -51,42 -11,16 -17,33 -17,50 0,22 7,39 21,53 14,14 33,21 57,21 16,0 31,-3 45,-9 14,-6 30,-16 47,-31l-101 -126z"/>
   <path id="5" class="fil4" d="M17608 7364l102 31c-16,57 -42,100 -78,128 -36,28 -83,42 -139,42 -69,0 -126,-24 -171,-71 -45,-47 -67,-112 -67,-194 0,-87 22,-154 67,-203 45,-48 104,-72 177,-72 64,0 116,19 156,57 24,22 42,54 53,96l-104 25c-6,-27 -19,-48 -39,-64 -20,-16 -44,-23 -71,-23 -39,0 -70,14 -94,42 -24,28 -36,73 -36,135 0,66 12,113 36,141 24,28 55,42 93,42 28,0 52,-9 72,-27 20,-18 35,-46 44,-84z"/>
   <path id="6" class="fil4" d="M17776 7362c0,-33 8,-66 25,-97 16,-31 40,-55 70,-71 30,-16 63,-25 101,-25 57,0 104,19 141,56 37,37 55,84 55,141 0,57 -18,105 -55,143 -37,38 -83,57 -139,57 -35,0 -68,-8 -99,-24 -31,-16 -55,-39 -72,-69 -16,-30 -25,-67 -25,-111zm103 5c0,38 9,66 27,86 18,20 40,30 66,30 26,0 48,-10 66,-30 18,-20 26,-49 26,-87 0,-37 -9,-66 -26,-86 -18,-20 -40,-30 -66,-30 -26,0 -48,10 -66,30 -18,20 -27,49 -27,86z"/>
   <polygon id="7" class="fil4" points="18463,7556 18463,7034 18568,7034 18568,7265 18781,7034 18923,7034 18726,7237 18933,7556 18797,7556 18653,7311 18568,7398 18568,7556 "/>
   <path id="8" class="fil4" d="M19256 7364l0 -88 227 0 0 208c-22,22 -54,40 -96,57 -42,16 -84,24 -127,24 -55,0 -102,-11 -143,-34 -40,-23 -71,-56 -91,-99 -20,-43 -31,-89 -31,-139 0,-54 11,-103 34,-145 23,-42 56,-75 100,-97 34,-17 75,-26 125,-26 65,0 115,14 152,41 36,27 60,65 70,113l-105 20c-7,-26 -21,-46 -41,-61 -20,-15 -45,-22 -76,-22 -46,0 -83,15 -110,44 -27,29 -41,73 -41,130 0,62 14,109 41,140 28,31 64,47 108,47 22,0 44,-4 66,-13 22,-9 41,-19 57,-32l0 -66 -120 0z"/>
  </g>
 </g>
</svg>
