<?xml version="1.0" encoding="UTF-8"?>
<svg id="Layer_1" data-name="Layer 1" xmlns="http://www.w3.org/2000/svg" viewBox="0 0 507 128.15">
  <defs>
    <style>
      .cls-1 {
        fill: none;
      }

      .cls-1, .cls-2 {
        stroke: #fff;
        stroke-miterlimit: 10;
        stroke-width: 2px;
      }

      .cls-2 {
        fill: #2b2a29;
        fill-rule: evenodd;
      }
    </style>
  </defs>
  <g id="Ebene_1">
    <g id="_917512368" data-name=" 917512368">
      <polygon class="cls-2" points="1.21 1.21 124.27 1.21 124.27 49.79 111.73 64.62 124.27 79.82 124.27 127.15 1 127.15 1.21 1.21"/>
      <polygon class="cls-2" points="131.28 1 184.96 1 184.96 94.44 199.83 94.44 199.83 1 252.67 1 252.67 127.15 131.45 127.15 131.28 1"/>
      <polygon class="cls-2" points="259.89 1 378.6 1 378.6 33.96 313.19 33.96 313.19 47.95 378.81 47.95 378.81 127.15 259.68 127.15 259.68 94.86 324.89 94.86 324.89 80.66 259.68 80.66 259.89 1"/>
      <polygon class="cls-2" points="386.04 1 505.79 1 505.79 33.54 438.29 33.54 438.29 47.95 505.79 47.95 505.79 80.86 438.29 80.86 438.29 94.86 506 94.86 506 127.15 385.83 127.15 386.04 1"/>
      <rect class="cls-1" x="47.7" y="24.89" width="32.12" height="31.91"/>
      <rect class="cls-1" x="47.7" y="72.01" width="32.12" height="31.91"/>
    </g>
  </g>
</svg>