<?xml version="1.0" standalone="no"?>
<!DOCTYPE svg PUBLIC "-//W3C//DTD SVG 20010904//EN"
 "http://www.w3.org/TR/2001/REC-SVG-20010904/DTD/svg10.dtd">
<svg version="1.0" xmlns="http://www.w3.org/2000/svg"
 width="980.000000pt" height="980.000000pt" viewBox="0 0 980.000000 980.000000"
 preserveAspectRatio="xMidYMid meet">

<g transform="translate(0.000000,980.000000) scale(0.100000,-0.100000)"
stroke="white" fill="white">
<path d="M3371 7959 c-160 -15 -355 -70 -515 -143 -134 -62 -278 -172 -384
-296 -221 -258 -341 -558 -374 -932 -48 -553 215 -1286 757 -2103 405 -612
1034 -1335 1532 -1761 177 -151 259 -214 441 -341 467 -323 750 -455 1115
-518 211 -37 521 -37 695 0 467 98 853 464 1011 959 41 128 55 212 55 341 1
99 -2 115 -25 160 -34 68 -107 124 -280 217 -165 88 -327 163 -549 253 -85 34
-203 83 -261 108 -153 66 -385 139 -444 140 -33 1 -65 -6 -96 -21 -91 -44
-210 -181 -307 -353 -70 -124 -154 -193 -232 -191 -103 2 -177 46 -550 324
-496 369 -869 815 -1148 1374 -144 287 -201 450 -202 571 0 80 66 129 310 227
145 58 233 111 293 175 54 57 77 104 77 154 0 84 -73 470 -170 902 -78 349
-94 403 -140 501 -49 101 -111 171 -189 213 -50 27 -77 33 -163 41 -117 11
-140 10 -257 -1z"/>
</g>
</svg>
