<?xml version="1.0" encoding="utf-8"?>
<!-- Generator: Adobe Illustrator 13.0.0, SVG Export Plug-In  -->
<!DOCTYPE svg PUBLIC "-//W3C//DTD SVG 1.1//EN" "http://www.w3.org/Graphics/SVG/1.1/DTD/svg11.dtd" [
	<!ENTITY ns_flows "http://ns.adobe.com/Flows/1.0/">
]>
<svg version="1.1"
	 xmlns="http://www.w3.org/2000/svg" xmlns:xlink="http://www.w3.org/1999/xlink" xmlns:a="http://ns.adobe.com/AdobeSVGViewerExtensions/3.0/"
	 x="0px" y="0px" width="412px" height="104px" viewBox="9 7.724 412 104" enable-background="new 9 7.724 412 104"
	 xml:space="preserve">
<defs>
</defs>
<g>
	<defs>
		<rect id="SVGID_1_" width="430.866" height="124.724"/>
	</defs>
	<clipPath id="SVGID_2_">
		<use xlink:href="#SVGID_1_"  overflow="visible"/>
	</clipPath>
	<path clip-path="url(#SVGID_2_)" fill="#FFFFFF" d="M84.694,58.505c-0.752-0.446-1.209-0.974-1.371-1.584l-0.487-1.653
		l-1.554-2.675l-0.152-1.442l-0.427-0.493l-1.615,0.07l-2.437-1.865l-1.736-0.211l-1.645-0.668l-4.417,0.07h-0.701l-0.853,0.14
		l-2.499,0.81l-1.249,0.281l-1.005,0.493l-0.731,0.247c-0.468,0.188-0.701,0.879-0.701,2.075v0.423
		c-0.589,1.455-0.883,2.252-0.883,2.393c0,0.14,0.019,0.235,0.06,0.281l0.153,0.282l0.609,0.281l-0.122,1.759l0.122,4.011
		c0,0.306-0.182,0.834-0.548,1.583c0.447,1.15,0.67,2.137,0.67,2.956l-0.122,3.237l-0.06,1.232l0.883,0.527l1.554,0.773l1.249,1.092
		l0.365-0.598l0.823,0.386l2.62,0.212l2.223,1.021l2.498-0.458l1.585,0.069l1.158-0.562l1.249-0.669l1.523-1.268l1.188-0.88
		l1.097-1.583l1.31-1.091c0.751-0.563,1.167-1.137,1.249-1.724l0.122-1.373l0.761-1.724c0.02-0.047,0.035-0.088,0.046-0.123
		c0.01-0.035,0.015-0.064,0.015-0.088l-0.122-2.815l-0.06-0.809L84.694,58.505z M88.624,61.672l-0.609,1.899l-0.305,0.845
		l-0.883,1.302l-0.64,1.372l-0.792,0.951l-0.579,0.844l-0.427,0.141l-0.822-0.211l-0.305,0.668
		c-0.528,1.104-0.929,1.795-1.203,2.076s-0.767,0.423-1.477,0.423H80.52l-0.487-0.069c-0.081,0.798-0.371,1.471-0.868,2.021
		c-0.498,0.552-1.315,1.063-2.453,1.531l-1.675,0.634l-1.371,0.563l-2.742,0.069l-0.762,0.142L69.4,77.471
		c-0.446-0.281-0.772-0.434-0.974-0.458c-0.203-0.023-0.853-0.093-1.95-0.211l-0.731-0.07l0.122-0.845l-0.701-0.14l-0.609,0.423
		l-0.518,0.281h-0.853h-1.371l-0.579-0.213l-0.183,0.882l0.122,5.241l-0.426,2.394l-0.061,0.984h0.487l0.183,6.512l-0.731,0.139
		l-0.183,0.564l0.122,0.88l0.365,1.865l-0.182,0.809l0.426-0.387l0.304,0.211l0.062,2.393l0.213,2.322l0.122,1.583
		c0,0.446-0.315,0.705-0.945,0.774l-0.182,0.492l1.066,0.317l-0.061,0.704l0.305,1.724l0.122,1.161l-0.366,0.669l-0.762,0.703
		l-0.609,1.163l-0.761,0.281l-1.615,0.879l-0.518,0.07l-1.127-0.07l-0.061-1.303l0.061-1.16l0.213-2.955l-0.061-2.956
		c0.02-0.307,0.071-0.553,0.153-0.74c0.08-0.188,0.253-0.399,0.517-0.633l-0.305-2.287c0.386-0.447,0.625-0.762,0.716-0.951
		c0.092-0.187,0.148-0.504,0.168-0.949c-0.346-0.142-0.574-0.28-0.685-0.423c-0.112-0.14-0.199-0.351-0.26-0.633l0.244-1.302
		l-0.122-0.951l-0.061-3.729l-0.121-2.814l0.304-3.343l0.061-0.915c0.467-0.517,0.701-1.021,0.701-1.514
		c0-0.398-0.092-1.02-0.274-1.864L56.94,79.83l-0.304-1.197v-0.528l0.365-11.752l0.366-1.267l-0.122-1.302l-0.122-0.951
		l-0.548-0.211v-0.95l-0.152-5.173v-0.563l0.213-1.443l-0.335-2.956c0-0.821-0.046-1.331-0.137-1.531
		c-0.092-0.198-0.392-0.462-0.899-0.791c0.061-0.751,0.183-1.231,0.365-1.442l0.61-0.423l1.431-1.865l1.31-0.88l0.762-0.422
		c0.386,0.048,0.863,0.352,1.432,0.915l-0.122,0.669l-0.122,1.055l0.062,0.599l0.548,0.07l1.066-0.669
		c1.239-0.727,2.148-1.208,2.726-1.442c0.58-0.235,1.193-0.353,1.844-0.353c0.345,0,0.614,0.053,0.807,0.159s0.381,0.276,0.563,0.51
		l0.549-0.457l0.304-0.422l0.762-0.212l1.25-0.281l3.442,0.07l2.924-0.07c0.386,0,0.843,0.364,1.371,1.091
		c0.081-0.023,0.163-0.047,0.244-0.071c0.081-0.023,0.142-0.035,0.183-0.035c0.162,0,0.518,0.176,1.066,0.528l2.254,1.302
		c0.407,0.188,0.671,0.399,0.793,0.634l0.518,1.372c0.101,0.188,0.284,0.281,0.548,0.281c0.244,0,0.518-0.07,0.823-0.211
		c0.609,0.54,1.127,1.231,1.553,2.076c0.285,0.587,0.595,1.636,0.93,3.15c0.334,1.513,0.502,2.656,0.502,3.43v0.141l-0.183,1.161
		l-0.061,0.986L88.624,61.672z"/>
	<path clip-path="url(#SVGID_2_)" fill="#FFFFFF" d="M91.614,96.394c-32.559,0-64.756-5.811-82.442-13.86
		c16.832,7.2,47.827,11.063,80.456,11.063c25.004,0,48.504-2.504,66.169-7.051c17.145-4.413,26.978-10.402,26.978-16.431
		c0-3.39-3.016-7.094-9.092-9.979c-9.201-4.369-14.755-8.973-14.755-13.711c0-6.803,9.935-13.16,27.973-17.902
		c17.859-4.693,41.478-7.278,66.505-7.278c32.562,0,64.759,5.81,82.442,13.86c-16.831-7.198-47.825-11.062-80.456-11.062
		c-25.004,0-48.504,2.504-66.17,7.051c-17.144,4.413-26.977,10.402-26.977,16.431c0,3.389,3.017,7.093,9.093,9.977
		c9.2,4.369,14.753,8.973,14.753,13.711c0,6.804-9.935,13.161-27.973,17.902C140.259,93.809,116.641,96.394,91.614,96.394"/>
	<path clip-path="url(#SVGID_2_)" fill="#FFFFFF" d="M121.922,52.382l-0.061,2.322c-0.02,0.916-0.066,1.491-0.137,1.725
		c-0.071,0.234-0.31,0.598-0.716,1.09l0.488,1.338l-0.823,1.442l0.884,1.021v5.841l-0.549,0.704l0.122,1.091l0.366,2.604
		l-0.061,2.288v0.809c0,0.657-0.396,1.021-1.188,1.091l-0.823,0.07l-1.859,1.162l-0.608,0.422l-1.249-1.23l0.182-0.95l1.127-3.871
		l-0.456-2.886l0.7-3.167c0.122-0.681,0.183-1.596,0.183-2.745c-0.508-0.259-0.762-0.622-0.762-1.091
		c0-0.587,0.132-1.325,0.396-2.217c0.163-0.586,0.244-1.22,0.244-1.9v-0.282l-0.244-2.639l0.305-1.372l-0.305-0.669l-0.457-1.161
		c-0.142-0.399-0.325-0.633-0.548-0.704l-1.127-0.422l-1.676-1.091l-1.127,0.071l-1.889-0.282l-2.498,0.071l-1.31,0.07
		c-0.63,0.141-1.209,0.352-1.736,0.633l-1.615,1.091l-1.31,0.563l-0.761,0.809l-0.976,1.302l-0.639,0.915l0.426,2.182l-0.365,5.383
		l0.06,0.388l-0.426-0.141l-0.183,0.281h-0.396l0.122,0.704l0.883,1.372c0.041,0,0.061,0.024,0.061,0.071l0.244,3.027l0.122,1.652
		l0.152,1.092v0.422l-0.274,0.669l0.122,3.236l-0.427,0.95l-0.304-0.069l-0.305,0.069l-0.579,0.353
		c-0.122,0.047-0.386,0.07-0.792,0.07l-0.578,0.563c-0.671,0.681-1.189,1.068-1.554,1.162l-0.305-0.811l-0.183-0.141l0.061-1.372
		l0.366-1.583v-1.443l0.67-1.267l0.152-0.809c-0.467-0.728-0.7-1.256-0.7-1.583l0.365-10.451l-0.122-3.238l1.25-2.533l-0.122-0.775
		l-0.427,0.493c-0.305-0.352-0.498-0.656-0.579-0.915c-0.081-0.258-0.122-0.668-0.122-1.231v-8.093l0.183-1.303h0.396l0.61-0.703
		c-0.325-0.212-0.488-0.622-0.488-1.232c-0.528-0.328-0.822-0.645-0.883-0.95v-2.709l-0.244-4.118l0.366-1.09l0.121-0.704
		l-0.67-1.021l0.061-0.809l0.122-0.915l0.244-0.809l0.182-0.774c-0.528-0.821-0.792-1.325-0.792-1.513l0.061-6.792l-0.7-3.308
		v-0.703l-0.732-0.669c0.102-0.422,0.366-0.786,0.793-1.09l2.437-1.443c0.954-0.563,1.645-0.845,2.071-0.845
		c0.629,0,0.975,0.188,1.036,0.563l-0.244,2.463l-0.061,4.539c0,0.705-0.182,1.185-0.548,1.443l-0.701,0.423
		c-0.284,0.164-0.426,0.481-0.426,0.95c0,0.117,0.04,0.528,0.122,1.231l0.365,0.071c0.366-0.423,0.782-0.669,1.249-0.739v0.668
		l-0.304,6.545l0.061,2.076l-0.762,1.76v0.774c0.67,0.892,1.005,1.537,1.005,1.935v0.212l-0.426,0.879v0.07l0.304,2.956l0.122,0.422
		l-0.061,0.458l-0.304,1.055l0.304,1.514l-0.121,1.302l0.182,0.879l-0.365,5.842l0.061,0.492l0.304,0.211l4.631-4.011l0.488,0.281
		l1.949-0.879l1.188-0.282l1.432-0.211c0.569,0.07,0.924,0.551,1.066,1.443h0.732l0.639-0.528l0.671-0.774l1.37,0.211l3.565,0.281
		l1.736,1.971l1.006,0.704l0.487,0.95l-0.731,0.493c0.345,0.234,0.589,0.351,0.731,0.351l0.457-0.14
		C121.638,50.083,121.922,51.116,121.922,52.382 M198.358,45.239c-0.385,0.985-0.609,1.9-0.669,2.745l-0.183,3.483l-0.579,1.197
		c0,0.047-0.006,0.094-0.015,0.141c-0.011,0.047-0.026,0.105-0.046,0.175c0,0.306,0.254,0.634,0.762,0.986l-0.122,1.091v6.826
		l-0.123,5.49l0.427,2.322v1.196l0.122,2.393c-0.102,0.353-0.742,1.044-1.919,2.076l-1.523,1.372
		c-0.244,0.305-0.549,0.458-0.914,0.458c-0.265,0-0.498-0.094-0.701-0.282c-0.204-0.187-0.305-0.387-0.305-0.598
		c0-0.61,0.162-1.325,0.488-2.146l0.243-1.021l-0.304-0.352l0.457-5.911l0.183-0.6l0.792-0.14v-1.126
		c0-0.728-0.051-1.268-0.153-1.619c-0.102-0.353-0.356-0.821-0.761-1.407l0.061-1.161v-0.212l-0.061-0.598
		c0-0.774,0.122-1.466,0.365-2.076l-0.426-0.598l0.061-1.936c0.284-0.187,0.426-0.398,0.426-0.633l-0.061-0.598l-0.883-0.141V52.98
		l0.061-0.95v-1.442c0-0.634-0.056-1.103-0.168-1.408c-0.112-0.305-0.361-0.633-0.746-0.985c0.263-0.821,0.863-1.536,1.797-2.147
		l2.925-1.935C197.415,44.183,197.912,44.559,198.358,45.239 M237.537,58.294l-0.671-0.141l0.122,0.809l-0.701,0.563
		c0.102,0.423,0.188,0.681,0.26,0.774c0.07,0.094,0.259,0.247,0.563,0.458l0.061,0.704c0,2.556-0.854,5.325-2.56,8.305
		c-0.386,0.656-0.863,1.348-1.431,2.075c-0.569,0.728-0.925,1.209-1.066,1.442l-0.914,0.281l-5.76,3.097l-3.167,0.142l-2.315,0.669
		l-2.742-0.071l-0.944,0.282l-2.742-0.563l-1.127-0.07l-0.609-0.811l-1.706-0.28l-0.793-0.492c-0.69-0.611-1.269-1.12-1.736-1.532
		c-0.467-0.41-0.767-0.679-0.899-0.809c-0.132-0.129-0.239-0.265-0.32-0.404l-0.67-1.514l-0.944-0.88l-0.731-2.217l-0.274-0.88
		l0.335-0.281c0-0.328,0.04-0.551,0.122-0.669c0.08-0.116,0.263-0.233,0.548-0.351l-0.182-0.563l-1.006-0.739v-1.442
		c0-1.008,0.101-2.006,0.304-2.991s0.559-2.123,1.067-3.413c0.792-2.064,1.381-3.238,1.766-3.519l1.25-0.95l0.67-1.373
		c0.243-0.492,0.538-0.82,0.884-0.985l2.863-1.759l1.615-1.513l1.949-0.845l3.413-1.372l2.833-0.282l2.225-0.07
		c1.259,0,1.889,0.399,1.889,1.196c0.345,0.353,0.568,0.528,0.67,0.528c0.305,0,0.64-0.34,1.005-1.02l0.762,0.211l1.98,0.809
		l0.823,0.774l1.127,0.81l1.127,2.005c0.305,0.446,0.903,0.669,1.798,0.669c0.589,0.844,0.984,1.677,1.188,2.498
		c0.203,0.822,0.427,2.335,0.67,4.54L237.537,58.294z M233.119,59.174l-1.127-4.047l-0.184-1.795l-0.304-0.668h-0.184
		c-0.162,0-0.294-0.036-0.396-0.106c-0.102-0.07-0.224-0.199-0.365-0.387l-1.494-2.146l-0.486-0.88l-2.56-1.372
		c-0.243-0.469-0.452-0.815-0.624-1.038c-0.173-0.223-0.381-0.335-0.625-0.335c-0.264,0-0.681,0.118-1.249,0.352
		c-0.568-0.281-0.985-0.422-1.249-0.422l-0.884,0.141l-1.492,0.07l-2.071,0.88l-0.487-0.493l-0.366,0.563l-2.072,1.443l-3.808,3.8
		l-0.731,0.739c-0.163,1.196-0.63,2.569-1.401,4.117l-0.427,0.844v0.282c0,0.516-0.072,0.857-0.213,1.021
		c-0.142,0.164-0.426,0.281-0.853,0.351c-0.082,0.376-0.122,0.552-0.122,0.528c0.02,0.047,0.035,0.088,0.046,0.124
		c0.009,0.035,0.015,0.064,0.015,0.088l0.944,1.231l0.122,0.774c-0.63,0.611-0.944,1.02-0.944,1.231l0.121,0.423
		c0.184-0.234,0.356-0.351,0.519-0.351c0.182,0,0.304,0.068,0.365,0.211l0.7,2.603l1.554,2.956l-0.182,1.794
		c0.162,0.189,0.345,0.282,0.548,0.282c0.244,0,0.497-0.141,0.762-0.423l0.609,0.212l3.686,2.604l3.747,0.423l2.133,0.352
		l2.407-0.493l1.584-0.422l1.979-2.322l1.433-0.493l0.7-0.88l1.614-3.87l0.823-0.81c0.284-0.328,0.426-0.609,0.426-0.844v-0.176
		l-0.486-1.654L233.119,59.174z M266.691,65.859c0,0.939-0.147,1.725-0.442,2.358c-0.295,0.633-0.645,0.949-1.051,0.949
		c-0.081,0-0.284-0.047-0.609-0.141l-0.396,0.81l-0.549,1.724l-1.371,1.725l-0.64,1.021l-0.854,0.069l-2.833,1.653l-1.31,0.211
		l-2.224,0.881l-1.768-0.388l-2.681,0.74c-0.183,0-1.178-0.225-2.985-0.669c-0.854-0.211-1.392-0.422-1.615-0.633l-1.188-0.881
		l-1.493-0.984c-0.63-0.471-1.143-1.074-1.538-1.813c-0.396-0.739-0.595-1.413-0.595-2.022c0-0.375,0.346-0.886,1.036-1.531
		c0.69-0.645,1.452-1.19,2.285-1.636l0.67,1.02l0.579,3.097l1.097,0.774l1.767,1.584l0.854,0.317l1.646,0.914h1.127l0.73,0.141
		l1.493-0.493l2.498-0.281l1.249-0.738l1.188-0.493c0.751-0.516,1.481-1.578,2.193-3.185c0.711-1.606,1.066-3.067,1.066-4.381
		c0-0.493-0.133-0.927-0.396-1.303l-1.188-1.935l-0.306-0.879l-0.73-0.422l-0.396,0.562l-0.67-0.07l-1.646-0.281h-1.919h-0.487
		l-0.822-1.373c-0.427,0.563-0.772,0.921-1.036,1.074c-0.265,0.152-0.772,0.299-1.523,0.44l-1.066,0.21l-0.609-0.351h-0.761
		l-0.793-0.704l-1.005,0.211l-0.944-0.528l-1.311-0.492c-0.508-0.188-0.944-0.645-1.31-1.373c-0.366-0.726-0.549-1.466-0.549-2.217
		c0-1.149,0.346-2.369,1.036-3.659s1.655-2.475,2.895-3.554c0.954-0.845,2.092-1.677,3.411-2.499c1.32-0.82,2.564-1.454,3.732-1.9
		c1.168-0.445,2.128-0.668,2.879-0.668c0.224,0,0.995,0.246,2.315,0.738l0.884,0.352c1.381-0.281,2.274-0.422,2.681-0.422
		c0.568,0,1.021,0.106,1.355,0.317s0.503,0.47,0.503,0.774c0,0.305-0.29,0.733-0.868,1.285c-0.579,0.551-1.305,1.061-2.179,1.53
		l-0.944,0.493l-0.792-0.07l-1.523-0.071l-1.157-0.352l-0.518-1.232h-0.427l-0.519,0.634h-0.913h-0.884l-1.249,0.211l-0.944-0.281
		l-0.487,0.422l-1.951,1.301c-1.359,1.362-2.041,2.593-2.041,3.695c0,0.775,0.204,1.28,0.61,1.513l2.011,1.056l0.609,0.387v0.845
		l0.944,0.598l1.005-1.091l0.486,0.071l5.12-0.423l2.437,0.634l1.127-0.211l1.433,1.091l2.132,1.372
		c0.427,0.329,0.803,1.067,1.127,2.217l0.244,0.95C266.509,63.678,266.691,64.897,266.691,65.859 M299.137,73.777l-0.305,0.668
		l-0.487,0.845l-0.884,0.388l-1.249,0.773l-1.188,0.422c-0.751,0.352-1.188,0.528-1.31,0.528c-0.143,0-0.279-0.088-0.411-0.264
		c-0.133-0.177-0.198-0.334-0.198-0.476c0-0.234,0.102-0.762,0.305-1.583c0.102-0.233,0.183-0.646,0.244-1.231l-0.609,0.458
		l-2.742,1.055c-0.549,0.305-1.097,0.457-1.645,0.457h-0.062h-1.188l-1.432,0.775l-0.975,0.14l-2.833,0.669l-1.158-0.211
		l-0.822,0.352l-0.58,0.142l-0.913-0.071l-2.01-0.492l-1.371-0.141c-0.935-0.141-1.742-0.51-2.422-1.109
		c-0.682-0.598-1.184-1.365-1.509-2.305l-0.822-0.351l-0.183-0.881l-0.062-0.634l-0.426-1.652l1.127-2.605l0.365-1.161
		c0.122-0.305,0.498-0.75,1.128-1.337l2.376-2.252l1.005-0.422l1.675-0.809c0.021,0,0.062,0.006,0.123,0.017
		c0.061,0.012,0.122,0.03,0.183,0.053c0.406-1.009,1.178-1.513,2.315-1.513l0.183-0.211h0.64c0.264-0.375,0.528-0.633,0.792-0.774
		c0.265-0.141,0.762-0.293,1.493-0.457l3.809-0.775l1.127,0.141l1.432-0.352l2.559-0.317c0.873-0.234,1.311-0.715,1.311-1.443
		c0-0.093-0.021-0.163-0.062-0.21l-0.304-1.584l0.243-2.287c-0.061-0.493-0.213-0.85-0.457-1.073
		c-0.243-0.223-0.609-0.37-1.097-0.44l-0.427-0.81c-0.447-0.844-0.813-1.389-1.097-1.636c-0.284-0.246-0.822-0.463-1.614-0.651
		l-1.736-0.457l-1.676-0.071l-0.823,0.141c-0.183-0.093-0.324-0.211-0.426-0.352c-0.102-0.14-0.183-0.352-0.244-0.633l-0.822,0.422
		l-0.944,1.02l-2.985,1.725c-0.63,0.399-1.047,0.786-1.249,1.161l-0.427,0.704c-0.203,0.375-0.478,0.563-0.823,0.563l-0.608-0.141
		l-0.884-0.493l-0.944-0.211c-0.305-0.117-0.609-0.316-0.914-0.598c-0.305-0.281-0.457-0.539-0.457-0.774
		c0-0.141,0.02-0.211,0.061-0.211l0.519-0.422l0.975-0.88l1.066-0.211l1.614-0.95l2.011-0.775l0.549-0.14l1.31-0.81l1.066,0.211
		l3.687-0.914l1.554,0.07h1.188l1.249,0.492l3.626,0.81l0.547,0.352v0.493l-0.425,0.281c0.121,0.821,0.375,1.232,0.762,1.232
		c0.04-0.024,0.07-0.041,0.091-0.053c0.021-0.012,0.051-0.018,0.092-0.018l0.853-0.422h0.122c0.203,0,0.335,0.117,0.396,0.352
		l0.61,1.302l0.64,0.562v0.81l-0.122,1.794c0,0.775,0.324,1.443,0.975,2.006l0.396,5.208l-0.823,1.302l0.944,1.267l0.062,0.457
		l-0.183,3.308l0.243,2.534v0.563v0.811l-0.426,0.14c0.04,0.586,0.07,0.962,0.091,1.125c0.021,0.165,0.092,0.405,0.213,0.722
		c0.122,0.317,0.264,0.687,0.427,1.108L299.137,73.777z M294.293,67.654c-0.305-0.305-0.498-0.563-0.579-0.773l0.122-1.444
		l-0.244-3.236l0.365-0.95l-0.975-0.634l-0.518,0.141l-2.803-0.211l-1.311,0.07l-1.005-0.809l-0.609,0.422l-1.676,0.07l-1.188,0.529
		l-0.701-0.458l-0.853,0.598l-4.57,2.534l-1.005,0.846l-0.792,1.372l-1.066,0.737c-0.163,0.188-0.244,0.399-0.244,0.635
		c0.021,0.048,0.041,0.093,0.062,0.14l0.243,0.423l-0.061,0.317l0.67,3.167l-0.67,2.005l0.487,0.704l0.822-1.126
		c0.284,0.281,0.549,0.516,0.792,0.704c0.244,0.187,0.538,0.346,0.884,0.475s0.781,0.264,1.31,0.405l0.64,0.984l2.103,0.246
		l0.579-0.669l0.609,0.354l0.426-0.282l0.336-0.212c0.487,0.188,0.771,0.282,0.853,0.282c0.609,0,1.401-0.328,2.377-0.986
		c0.061-0.046,0.142-0.098,0.243-0.157c0.102-0.058,0.254-0.159,0.457-0.3c1.828,0,3.036-0.433,3.625-1.301l0.609-0.915l1.493-1.443
		l0.061-0.423l-0.061-0.457c0.305-0.117,0.497-0.258,0.579-0.422C294.191,68.44,294.252,68.124,294.293,67.654 M199.638,33.86
		c0,0.516-0.112,0.857-0.335,1.02l-2.224,1.865l-0.884,1.021l-1.614,1.267c-1.077,0.914-1.726,1.372-1.95,1.372
		c-0.102,0-0.208-0.076-0.319-0.229c-0.113-0.152-0.168-0.31-0.168-0.475c0-0.539,0.122-0.95,0.365-1.231l3.138-3.449l1.676-2.604
		c0.244-0.141,0.518-0.211,0.823-0.211c0.405,0,0.756,0.158,1.051,0.475C199.491,32.998,199.638,33.391,199.638,33.86
		 M155.982,68.745l-1.036,3.309v0.14l0.122,0.528l0.609,0.844l-0.243,1.901l0.122,2.71l-0.305,0.879l0.061,3.729l-0.457,1.231
		l-0.305,1.724l-0.487,1.162l0.061,1.794l-1.067,3.027l-0.243,0.809l-0.884,0.633l-2.315,3.413l-1.371,2.358
		c-0.508,0.915-1.026,1.513-1.554,1.794l-0.792,0.529l-0.761,0.915l-0.945,0.669l-0.548,0.562l-1.31,0.422
		c-0.021,0-0.67,0.34-1.95,1.021l-1.92,0.809l-2.741,0.915l-2.864-0.352l-1.523-0.211c-0.731-0.071-1.351-0.271-1.858-0.599
		l-2.072-1.514l-1.036-0.281l-0.823-1.302l-1.614-1.127c-0.386-0.375-0.579-1.031-0.579-1.969c0-0.986,0.295-1.925,0.883-2.816
		c0.183-0.258,0.579-0.422,1.189-0.492l0.365,1.021l0.305,0.984l1.188,1.899l1.188,2.147c0.427,0.492,0.741,0.738,0.945,0.738h0.061
		l0.426-0.069l2.559,1.195l2.133,0.176c0.263,0.235,0.528,0.353,0.792,0.353c0.202,0,0.477-0.153,0.823-0.458l0.7,0.105
		c0.853,0,2.071-0.409,3.656-1.231c1.401-0.797,2.254-1.396,2.559-1.794l2.315-2.745l1.432-1.02c0.528-0.471,0.964-1.338,1.31-2.605
		l0.761-2.884l1.128-2.006l-0.183-1.515l0.549-2.813l0.06-2.887c0-0.984,0.193-1.97,0.579-2.954l0.488-1.937l-0.366-1.653
		l-0.335-4.892l-0.061-0.809v-0.353l0.518-1.865l-0.335-0.526l-0.914,0.526l-1.067,0.704l-0.883,1.091l-2.925,2.146l-1.492,1.654
		l-2.316,1.97c-0.65,0.517-1.147,0.845-1.492,0.986l-2.011,0.387l-1.097,0.493c-0.447,0.14-0.782,0.211-1.005,0.211
		c-0.792,0-1.849-0.293-3.169-0.88c-1.32-0.586-2.224-1.186-2.711-1.795c-0.792-0.914-1.188-2.087-1.188-3.52l0.061-0.738
		c0.426-0.328,0.64-0.634,0.64-0.915c0-0.047-0.006-0.089-0.016-0.123c-0.01-0.034-0.025-0.064-0.045-0.089l-0.64-1.02l-0.061-1.021
		l0.183-0.915l1.188-3.167l-0.244-1.231v-0.458c0-0.257,0.081-0.832,0.244-1.724l0.579-2.569c0.122-0.609,0.223-1.196,0.304-1.759
		l0.061-2.709l0.579-2.745c0-0.328-0.152-0.739-0.457-1.231l-0.853-0.141l-0.091-0.599l1.127-1.512l0.701-0.282l1.066-0.352
		l3.046-2.006h0.183c0.305,0,0.548,0.141,0.732,0.422c0.182,0.282,0.273,0.646,0.273,1.091v0.212l-0.944,2.674l-0.426,2.639
		l-0.762,4.047l-0.183,2.393c-0.102,0.351-0.264,0.563-0.487,0.633l-0.945,0.282c-0.325,0.14-0.487,0.41-0.487,0.809
		c0,0.563,0.416,0.844,1.249,0.844l-0.883,7.285l-0.244,2.109l0.182,0.563l0.427,0.633l0.883,1.69l1.737,0.773l0.822,1.091
		l0.427,0.211h0.244l1.005-0.809l2.924-1.127l1.25-1.02l2.132-1.725l2.011-2.252l1.31-0.915l0.548-0.387l1.127-3.378l0.184-0.141
		l0.121-0.633l0.64-0.88l-0.274-1.935l0.274-0.528l-0.152-1.513l0.213-0.774l-0.518-3.097l-0.243-4.258l-0.884-2.076
		c-0.041-0.093-0.061-0.246-0.061-0.457v-0.563l1.31-0.493l0.944-1.021l1.797-0.281l0.702-0.211
		c0.589,0.469,0.883,0.868,0.883,1.196v0.176l-0.183,1.267l0.122,2.534l-0.274,1.02v0.915l-0.366,1.584l0.061,0.527
		c0.305,0.845,0.538,1.478,0.701,1.9c0.162,0.423,0.244,0.751,0.244,0.986v0.915l0.122,2.252l-0.427,1.231
		c-0.082,0.282-0.122,0.493-0.122,0.634c0,0.657,0.325,1.325,0.975,2.005l-0.061,0.881L155.982,68.745z"/>
	<path clip-path="url(#SVGID_2_)" fill="#FFFFFF" d="M174.311,96.223c0.898,0.674,1.348,1.674,1.348,2.998
		c0,1.384-0.44,2.428-1.321,3.131c-0.882,0.704-2.061,1.056-3.539,1.056h-1.331v4.099h-2.91V95.213h3.974
		C172.153,95.213,173.412,95.55,174.311,96.223 M172.12,100.827c0.361-0.324,0.541-0.859,0.541-1.605
		c0-1.289-0.721-1.934-2.164-1.934h-1.029v4.027h1.082C171.236,101.315,171.759,101.152,172.12,100.827"/>
	<path clip-path="url(#SVGID_2_)" fill="#FFFFFF" d="M180.999,102.804v4.701h-2.91V95.212h4.028c1.679,0,2.941,0.308,3.787,0.922
		c0.845,0.615,1.268,1.557,1.268,2.821c0,0.792-0.189,1.448-0.568,1.969c-0.378,0.521-0.975,0.971-1.791,1.349l3.122,5.232h-3.282
		l-2.519-4.701H180.999z M182.223,100.799c0.65,0,1.138-0.146,1.463-0.441c0.326-0.297,0.488-0.765,0.488-1.402
		c0-0.592-0.175-1.022-0.523-1.296c-0.349-0.271-0.885-0.408-1.605-0.408h-1.047v3.548H182.223z"/>
	<path clip-path="url(#SVGID_2_)" fill="#FFFFFF" d="M192.174,104.862l-0.621,2.645h-3.015l3.708-12.293h3.53l3.707,12.293h-3.086
		l-0.621-2.645H192.174z M193.966,97.323l-1.295,5.429h2.59L193.966,97.323z"/>
	<polygon clip-path="url(#SVGID_2_)" fill="#FFFFFF" points="207.324,107.505 205.213,102.823 203.138,107.505 200.051,107.505 
		203.492,100.978 200.317,95.212 203.475,95.212 205.248,99.151 207.112,95.212 210.198,95.212 206.951,100.871 210.5,107.505 	"/>
	<rect x="212.468" y="95.213" clip-path="url(#SVGID_2_)" fill="#FFFFFF" width="2.91" height="12.293"/>
	<path clip-path="url(#SVGID_2_)" fill="#FFFFFF" d="M224.93,95.3c0.68,0.262,1.298,0.656,1.854,1.188l-1.366,1.58
		c-0.828-0.688-1.721-1.03-2.679-1.03c-0.509,0-0.911,0.104-1.207,0.312c-0.295,0.208-0.443,0.506-0.443,0.896
		c0,0.273,0.065,0.494,0.195,0.665c0.13,0.172,0.36,0.334,0.691,0.488c0.331,0.153,0.828,0.337,1.491,0.549
		c1.253,0.403,2.176,0.896,2.767,1.482c0.593,0.585,0.887,1.416,0.887,2.491c0,0.771-0.194,1.446-0.585,2.031
		c-0.39,0.586-0.952,1.041-1.685,1.367c-0.733,0.325-1.604,0.488-2.608,0.488s-1.896-0.159-2.67-0.48
		c-0.775-0.319-1.439-0.744-1.995-1.277l1.489-1.632c0.911,0.817,1.94,1.226,3.087,1.226c0.604,0,1.08-0.134,1.429-0.4
		c0.348-0.266,0.522-0.635,0.522-1.108c0-0.308-0.064-0.564-0.194-0.771c-0.131-0.207-0.355-0.394-0.674-0.56
		c-0.32-0.166-0.781-0.343-1.385-0.531c-1.358-0.414-2.327-0.923-2.9-1.526c-0.573-0.602-0.86-1.366-0.86-2.288
		c0-0.71,0.189-1.333,0.568-1.872c0.378-0.537,0.904-0.952,1.578-1.241c0.674-0.29,1.438-0.436,2.289-0.436
		C223.448,94.91,224.25,95.041,224.93,95.3"/>
	<polygon clip-path="url(#SVGID_2_)" fill="#FFFFFF" points="237.604,97.288 237.604,100.552 241.188,100.552 241.188,102.626 
		237.604,102.626 237.604,107.506 234.695,107.506 234.695,95.213 242.021,95.213 241.721,97.288 	"/>
	<path clip-path="url(#SVGID_2_)" fill="#FFFFFF" d="M253.1,105.679c-0.36,0.661-0.901,1.182-1.623,1.56
		c-0.721,0.379-1.603,0.569-2.643,0.569c-1.562,0-2.749-0.396-3.566-1.19c-0.816-0.792-1.224-1.855-1.224-3.192v-8.213h2.909v8.089
		c0,0.792,0.151,1.382,0.452,1.766c0.303,0.383,0.777,0.577,1.429,0.577c0.662,0,1.144-0.194,1.446-0.577
		c0.301-0.384,0.452-0.974,0.452-1.766v-8.089h2.908v8.213C253.641,104.266,253.46,105.017,253.1,105.679 M247.805,91.503
		c0.271,0.272,0.408,0.599,0.408,0.978c0,0.401-0.137,0.738-0.408,1.01c-0.271,0.273-0.609,0.409-1.012,0.409
		s-0.744-0.136-1.028-0.409c-0.283-0.271-0.426-0.608-0.426-1.01c0-0.379,0.143-0.705,0.426-0.978
		c0.284-0.271,0.626-0.406,1.028-0.406S247.533,91.233,247.805,91.503 M251.912,91.503c0.277,0.272,0.416,0.599,0.416,0.978
		c0,0.401-0.139,0.738-0.416,1.01c-0.278,0.273-0.618,0.409-1.021,0.409c-0.401,0-0.741-0.136-1.02-0.409
		c-0.278-0.271-0.416-0.608-0.416-1.01c0-0.379,0.138-0.705,0.416-0.978c0.278-0.271,0.618-0.406,1.02-0.406
		C251.294,91.097,251.634,91.233,251.912,91.503"/>
	<path clip-path="url(#SVGID_2_)" fill="#FFFFFF" d="M259.565,102.804v4.701h-2.909V95.212h4.027c1.679,0,2.941,0.308,3.787,0.922
		c0.846,0.615,1.269,1.557,1.269,2.821c0,0.792-0.189,1.448-0.568,1.969c-0.378,0.521-0.975,0.971-1.791,1.349l3.122,5.232h-3.281
		l-2.52-4.701H259.565z M260.79,100.799c0.65,0,1.139-0.146,1.463-0.441c0.325-0.297,0.488-0.765,0.488-1.402
		c0-0.592-0.175-1.022-0.523-1.296c-0.35-0.271-0.884-0.408-1.605-0.408h-1.047v3.548H260.79z"/>
	<path clip-path="url(#SVGID_2_)" fill="#FFFFFF" d="M281.332,96.223c0.898,0.674,1.349,1.674,1.349,2.998
		c0,1.384-0.441,2.428-1.322,3.131c-0.881,0.704-2.061,1.056-3.539,1.056h-1.329v4.099h-2.91V95.213h3.974
		C279.174,95.213,280.434,95.55,281.332,96.223 M279.142,100.827c0.36-0.324,0.541-0.859,0.541-1.605
		c0-1.289-0.722-1.934-2.164-1.934h-1.028v4.027h1.081C278.257,101.315,278.78,101.152,279.142,100.827"/>
	<polygon clip-path="url(#SVGID_2_)" fill="#FFFFFF" points="288.02,102.237 288.02,107.506 285.11,107.506 285.11,95.213 
		288.02,95.213 288.02,99.966 291.71,99.966 291.71,95.213 294.619,95.213 294.619,107.506 291.71,107.506 291.71,102.237 	"/>
	<polygon clip-path="url(#SVGID_2_)" fill="#FFFFFF" points="303.382,107.505 300.473,107.505 300.473,102.911 296.534,95.212 
		299.71,95.212 301.98,100.623 304.251,95.212 307.319,95.212 303.382,102.894 	"/>
	<path clip-path="url(#SVGID_2_)" fill="#FFFFFF" d="M314.886,95.3c0.68,0.262,1.298,0.656,1.854,1.188l-1.365,1.58
		c-0.828-0.688-1.721-1.03-2.679-1.03c-0.509,0-0.911,0.104-1.207,0.312c-0.295,0.208-0.442,0.506-0.442,0.896
		c0,0.273,0.064,0.494,0.193,0.665c0.131,0.172,0.361,0.334,0.692,0.488c0.331,0.153,0.828,0.337,1.491,0.549
		c1.253,0.403,2.176,0.896,2.767,1.482c0.592,0.585,0.887,1.416,0.887,2.491c0,0.771-0.194,1.446-0.586,2.031
		c-0.389,0.586-0.951,1.041-1.684,1.367c-0.733,0.325-1.604,0.488-2.609,0.488c-1.004,0-1.895-0.159-2.669-0.48
		c-0.774-0.319-1.439-0.744-1.995-1.277l1.489-1.632c0.911,0.817,1.94,1.226,3.088,1.226c0.603,0,1.079-0.134,1.428-0.4
		c0.348-0.266,0.522-0.635,0.522-1.108c0-0.308-0.064-0.564-0.195-0.771c-0.129-0.207-0.354-0.394-0.673-0.56
		c-0.32-0.166-0.781-0.343-1.385-0.531c-1.359-0.414-2.326-0.923-2.901-1.526c-0.572-0.602-0.859-1.366-0.859-2.288
		c0-0.71,0.189-1.333,0.567-1.872c0.379-0.537,0.905-0.952,1.579-1.241c0.674-0.29,1.438-0.436,2.289-0.436
		C313.405,94.91,314.206,95.041,314.886,95.3"/>
	<rect x="319.561" y="95.213" clip-path="url(#SVGID_2_)" fill="#FFFFFF" width="2.909" height="12.293"/>
	<path clip-path="url(#SVGID_2_)" fill="#FFFFFF" d="M334.719,96.595c0.977,1.123,1.463,2.709,1.463,4.754
		c0,1.337-0.222,2.49-0.665,3.46c-0.442,0.971-1.082,1.712-1.916,2.228c-0.834,0.513-1.823,0.771-2.971,0.771
		s-2.135-0.255-2.963-0.763s-1.464-1.245-1.907-2.208c-0.443-0.965-0.665-2.126-0.665-3.487c0-1.322,0.222-2.472,0.665-3.439
		c0.443-0.971,1.079-1.713,1.907-2.228s1.815-0.771,2.963-0.771C332.379,94.911,333.743,95.472,334.719,96.595 M328.758,98.059
		c-0.408,0.682-0.611,1.776-0.611,3.29c0,1.516,0.207,2.614,0.62,3.301c0.414,0.685,1.034,1.028,1.863,1.028
		c0.851,0,1.481-0.341,1.889-1.02c0.408-0.681,0.612-1.783,0.612-3.31c0-1.524-0.207-2.625-0.621-3.3
		c-0.414-0.674-1.041-1.011-1.88-1.011C329.789,97.039,329.166,97.378,328.758,98.059"/>
	<polygon clip-path="url(#SVGID_2_)" fill="#FFFFFF" points="343.544,97.448 343.544,107.506 340.635,107.506 340.635,97.448 
		337.459,97.448 337.459,95.213 346.861,95.213 346.578,97.448 	"/>
	<polygon clip-path="url(#SVGID_2_)" fill="#FFFFFF" points="351.829,102.237 351.829,107.506 348.919,107.506 348.919,95.213 
		351.829,95.213 351.829,99.966 355.519,99.966 355.519,95.213 358.427,95.213 358.427,107.506 355.519,107.506 355.519,102.237 	
		"/>
	<polygon clip-path="url(#SVGID_2_)" fill="#FFFFFF" points="364.528,97.288 364.528,100.232 368.308,100.232 368.308,102.272 
		364.528,102.272 364.528,105.413 369.159,105.413 369.159,107.506 361.619,107.506 361.619,95.213 369.159,95.213 368.857,97.288 	
		"/>
	<path clip-path="url(#SVGID_2_)" fill="#FFFFFF" d="M374.747,102.804v4.701h-2.909V95.212h4.027c1.679,0,2.941,0.308,3.786,0.922
		c0.847,0.615,1.27,1.557,1.27,2.821c0,0.792-0.189,1.448-0.568,1.969c-0.378,0.521-0.975,0.971-1.791,1.349l3.122,5.232h-3.282
		l-2.519-4.701H374.747z M375.972,100.799c0.649,0,1.138-0.146,1.463-0.441c0.326-0.297,0.488-0.765,0.488-1.402
		c0-0.592-0.175-1.022-0.523-1.296c-0.349-0.271-0.885-0.408-1.605-0.408h-1.047v3.548H375.972z"/>
	<path clip-path="url(#SVGID_2_)" fill="#FFFFFF" d="M385.923,104.862l-0.621,2.645h-3.016l3.708-12.293h3.53l3.708,12.293h-3.087
		l-0.621-2.645H385.923z M387.715,97.323l-1.295,5.429h2.591L387.715,97.323z"/>
	<path clip-path="url(#SVGID_2_)" fill="#FFFFFF" d="M402.775,96.223c0.898,0.674,1.348,1.674,1.348,2.998
		c0,1.384-0.439,2.428-1.32,3.131c-0.882,0.704-2.062,1.056-3.539,1.056h-1.331v4.099h-2.909V95.213h3.974
		C400.617,95.213,401.877,95.55,402.775,96.223 M400.585,100.827c0.361-0.324,0.541-0.859,0.541-1.605
		c0-1.289-0.722-1.934-2.164-1.934h-1.029v4.027h1.082C399.7,101.315,400.225,101.152,400.585,100.827"/>
	<rect x="406.554" y="95.213" clip-path="url(#SVGID_2_)" fill="#FFFFFF" width="2.909" height="12.293"/>
	<polygon clip-path="url(#SVGID_2_)" fill="#FFFFFF" points="415.565,97.288 415.565,100.232 419.344,100.232 419.344,102.272 
		415.565,102.272 415.565,105.413 420.195,105.413 420.195,107.506 412.656,107.506 412.656,95.213 420.195,95.213 419.894,97.288 	
		"/>
</g>
</svg>
